<svg width="1010" height="191" viewBox="0 0 1010 191" fill="none" xmlns="http://www.w3.org/2000/svg">
<path d="M252.168 54.888C256.691 54.9733 261.683 55.272 267.144 55.784C272.605 56.296 277.896 57.3627 283.016 58.984L281.48 74.6C277.725 74.5147 273.117 74.4293 267.656 74.344C262.28 74.2587 256.989 74.216 251.784 74.216C249.821 74.216 248.157 74.3013 246.792 74.472C245.512 74.5573 244.445 74.8133 243.592 75.24C242.824 75.5813 242.269 76.136 241.928 76.904C241.587 77.5867 241.416 78.568 241.416 79.848C241.416 81.896 242.013 83.4747 243.208 84.584C244.488 85.608 246.707 86.6747 249.864 87.784L266.376 93.928C273.544 96.744 278.536 100.243 281.352 104.424C284.253 108.52 285.704 113.853 285.704 120.424C285.704 125.373 285.107 129.555 283.912 132.968C282.717 136.381 280.755 139.069 278.024 141.032C275.379 142.995 271.837 144.445 267.4 145.384C263.048 146.323 257.629 146.792 251.144 146.792C248.157 146.792 243.763 146.579 237.96 146.152C232.243 145.725 225.757 144.616 218.504 142.824L219.912 125.928C225.032 126.013 229.555 126.141 233.48 126.312C237.491 126.397 240.947 126.483 243.848 126.568C246.835 126.568 249.181 126.568 250.888 126.568C253.789 126.568 256.008 126.44 257.544 126.184C259.08 125.843 260.147 125.288 260.744 124.52C261.341 123.667 261.64 122.472 261.64 120.936C261.64 119.485 261.427 118.333 261 117.48C260.573 116.627 259.805 115.901 258.696 115.304C257.672 114.707 256.264 114.109 254.472 113.512L236.808 106.472C229.811 103.571 224.861 100.115 221.96 96.104C219.059 92.0933 217.608 86.8453 217.608 80.36C217.608 75.24 218.248 71.0587 219.528 67.816C220.808 64.5733 222.771 62.0133 225.416 60.136C228.147 58.2587 231.731 56.936 236.168 56.168C240.605 55.3147 245.939 54.888 252.168 54.888ZM319.833 81.384V145H296.665V81.384H319.833ZM313.177 52.712C317.7 52.712 319.961 55.016 319.961 59.624V66.28C319.961 70.888 317.7 73.192 313.177 73.192H303.193C298.67 73.192 296.409 70.888 296.409 66.28V59.624C296.409 55.016 298.67 52.712 303.193 52.712H313.177ZM364.251 79.592C366.726 79.592 369.456 79.72 372.443 79.976C375.43 80.232 378.416 80.7013 381.403 81.384C384.39 81.9813 387.078 82.8347 389.467 83.944L387.163 98.408C383.323 98.408 379.867 98.408 376.795 98.408C373.723 98.3227 370.864 98.28 368.219 98.28C364.976 98.28 362.416 98.7067 360.539 99.56C358.662 100.413 357.339 101.907 356.571 104.04C355.803 106.088 355.419 109.117 355.419 113.128C355.419 117.053 355.803 120.125 356.571 122.344C357.339 124.477 358.662 125.971 360.539 126.824C362.416 127.592 364.976 127.976 368.219 127.976C369.67 127.976 371.462 127.976 373.595 127.976C375.728 127.891 378.075 127.805 380.635 127.72C383.195 127.549 385.755 127.336 388.315 127.08L390.491 141.672C386.822 143.464 382.64 144.701 377.947 145.384C373.339 146.152 368.688 146.536 363.995 146.536C355.974 146.536 349.531 145.469 344.667 143.336C339.803 141.117 336.304 137.576 334.171 132.712C332.038 127.763 330.971 121.235 330.971 113.128C330.971 104.851 332.038 98.28 334.171 93.416C336.39 88.552 339.931 85.0533 344.795 82.92C349.659 80.7013 356.144 79.592 364.251 79.592ZM417.954 81.384L420.77 94.184L423.074 95.848V145H399.778V81.384H417.954ZM448.93 79.592L446.882 100.968H440.738C438.178 100.968 435.362 101.224 432.29 101.736C429.218 102.248 425.335 103.101 420.642 104.296L419.234 91.624C423.501 87.6133 427.853 84.6267 432.29 82.664C436.813 80.616 441.165 79.592 445.346 79.592H448.93ZM487.531 79.592C498.966 79.592 507.115 81.4693 511.979 85.224C516.843 88.9787 519.275 94.5253 519.275 101.864C519.36 107.752 517.739 112.061 514.411 114.792C511.083 117.523 505.195 118.888 496.747 118.888H461.931V107.24H490.219C493.12 107.24 494.955 106.813 495.723 105.96C496.576 105.107 497.003 103.571 497.003 101.352C496.918 98.8773 496.235 97.2133 494.955 96.36C493.675 95.5067 491.456 95.08 488.299 95.08C485.312 94.9947 483.008 95.336 481.387 96.104C479.851 96.872 478.784 98.408 478.187 100.712C477.59 103.016 477.291 106.472 477.291 111.08C477.291 115.688 477.632 119.229 478.315 121.704C479.083 124.179 480.406 125.928 482.283 126.952C484.246 127.976 486.976 128.488 490.475 128.488C493.206 128.488 496.79 128.403 501.227 128.232C505.75 127.976 510.486 127.592 515.435 127.08L517.611 141.16C514.88 142.525 511.851 143.592 508.523 144.36C505.28 145.128 501.91 145.683 498.411 146.024C494.912 146.365 491.414 146.536 487.915 146.536C479.382 146.536 472.555 145.341 467.435 142.952C462.315 140.563 458.603 136.936 456.299 132.072C454.08 127.123 452.971 120.936 452.971 113.512C452.971 105.149 454.123 98.4933 456.427 93.544C458.731 88.5947 462.4 85.0533 467.435 82.92C472.555 80.7013 479.254 79.592 487.531 79.592ZM551.419 79.592C556.112 79.592 560.55 80.2747 564.731 81.64C568.912 83.0053 572.454 85.352 575.355 88.68L573.691 98.28C571.472 97.5973 569.382 96.9573 567.419 96.36C565.542 95.6773 563.152 95.336 560.251 95.336C558.118 95.336 556.368 95.72 555.003 96.488C553.723 97.256 552.742 98.8773 552.059 101.352C551.462 103.741 551.163 107.411 551.163 112.36C551.163 116.797 551.462 120.125 552.059 122.344C552.656 124.477 553.595 125.928 554.875 126.696C556.24 127.379 557.904 127.72 559.867 127.72C561.915 127.72 563.622 127.549 564.987 127.208C566.438 126.781 567.803 126.227 569.083 125.544C570.363 124.776 571.771 123.923 573.307 122.984L574.843 133.224C572.795 136.979 569.766 140.136 565.755 142.696C561.744 145.256 556.539 146.536 550.139 146.536C541.862 146.536 535.974 143.592 532.475 137.704C528.976 131.731 527.227 123.325 527.227 112.488C527.227 103.869 528.123 97.2133 529.915 92.52C531.792 87.7413 534.523 84.4133 538.107 82.536C541.691 80.5733 546.128 79.592 551.419 79.592ZM594.299 55.4V145H575.867L573.563 132.968L571.131 131.304V90.472L571.899 88.808C571.643 86.1627 571.43 83.3467 571.259 80.36C571.174 77.3733 571.131 74.4293 571.131 71.528V55.4H594.299ZM631.083 81.384V145H607.915V81.384H631.083ZM624.427 52.712C628.95 52.712 631.211 55.016 631.211 59.624V66.28C631.211 70.888 628.95 73.192 624.427 73.192H614.443C609.92 73.192 607.659 70.888 607.659 66.28V59.624C607.659 55.016 609.92 52.712 614.443 52.712H624.427ZM709.407 55.4C716.66 55.4 722.804 56.1253 727.839 57.576C732.959 59.0267 737.055 61.4587 740.127 64.872C743.284 68.2853 745.546 72.936 746.911 78.824C748.362 84.6267 749.087 91.9653 749.087 100.84C749.087 109.715 748.362 117.096 746.911 122.984C745.546 128.787 743.284 133.395 740.127 136.808C737.055 140.221 732.959 142.653 727.839 144.104C722.804 145.555 716.66 146.28 709.407 146.28C702.324 146.28 695.796 146.152 689.823 145.896C683.935 145.64 678.346 145.341 673.055 145L682.911 127.72C685.983 127.976 689.78 128.189 694.303 128.36C698.826 128.445 703.86 128.488 709.407 128.488C713.076 128.488 715.935 127.72 717.983 126.184C720.116 124.648 721.61 121.875 722.463 117.864C723.316 113.853 723.743 108.179 723.743 100.84C723.743 93.5013 723.316 87.8267 722.463 83.816C721.61 79.8053 720.116 77.032 717.983 75.496C715.935 73.96 713.076 73.192 709.407 73.192C704.202 73.192 699.551 73.192 695.455 73.192C691.444 73.192 687.562 73.192 683.807 73.192L673.055 56.68C678.431 56.3387 684.02 56.04 689.823 55.784C695.711 55.528 702.239 55.4 709.407 55.4ZM697.119 56.68V145H673.055V56.68H697.119ZM792.781 79.592C804.216 79.592 812.365 81.4693 817.229 85.224C822.093 88.9787 824.525 94.5253 824.525 101.864C824.61 107.752 822.989 112.061 819.661 114.792C816.333 117.523 810.445 118.888 801.997 118.888H767.181V107.24H795.469C798.37 107.24 800.205 106.813 800.973 105.96C801.826 105.107 802.253 103.571 802.253 101.352C802.168 98.8773 801.485 97.2133 800.205 96.36C798.925 95.5067 796.706 95.08 793.549 95.08C790.562 94.9947 788.258 95.336 786.637 96.104C785.101 96.872 784.034 98.408 783.437 100.712C782.84 103.016 782.541 106.472 782.541 111.08C782.541 115.688 782.882 119.229 783.565 121.704C784.333 124.179 785.656 125.928 787.533 126.952C789.496 127.976 792.226 128.488 795.725 128.488C798.456 128.488 802.04 128.403 806.477 128.232C811 127.976 815.736 127.592 820.685 127.08L822.861 141.16C820.13 142.525 817.101 143.592 813.773 144.36C810.53 145.128 807.16 145.683 803.661 146.024C800.162 146.365 796.664 146.536 793.165 146.536C784.632 146.536 777.805 145.341 772.685 142.952C767.565 140.563 763.853 136.936 761.549 132.072C759.33 127.123 758.221 120.936 758.221 113.512C758.221 105.149 759.373 98.4933 761.677 93.544C763.981 88.5947 767.65 85.0533 772.685 82.92C777.805 80.7013 784.504 79.592 792.781 79.592ZM901.222 81.384L883.558 112.488L902.63 145H879.462L861.67 112.488L878.054 81.384H901.222ZM852.71 81.384L869.222 112.488L851.43 145H828.134L847.206 112.488L829.542 81.384H852.71ZM877.286 105.448V119.016H853.734V105.448H877.286ZM933.208 81.384V145H910.04V81.384H933.208ZM926.552 52.712C931.075 52.712 933.336 55.016 933.336 59.624V66.28C933.336 70.888 931.075 73.192 926.552 73.192H916.568C912.045 73.192 909.784 70.888 909.784 66.28V59.624C909.784 55.016 912.045 52.712 916.568 52.712H926.552ZM972.506 79.592C975.834 79.592 979.375 79.72 983.13 79.976C986.97 80.232 990.725 80.5307 994.394 80.872C998.063 81.2133 1001.22 81.6827 1003.87 82.28L1002.33 96.104C998.149 96.104 993.925 96.104 989.658 96.104C985.477 96.0187 981.423 95.976 977.498 95.976C974.426 95.976 972.122 96.0187 970.586 96.104C969.05 96.1893 967.983 96.4453 967.386 96.872C966.874 97.2133 966.618 97.896 966.618 98.92C966.618 100.2 967.173 101.053 968.282 101.48C969.391 101.907 971.439 102.547 974.426 103.4L990.042 107.24C995.589 108.691 999.685 110.824 1002.33 113.64C1004.98 116.371 1006.3 120.509 1006.3 126.056C1006.3 131.347 1005.27 135.485 1003.23 138.472C1001.26 141.373 998.063 143.421 993.626 144.616C989.189 145.811 983.429 146.408 976.346 146.408C973.445 146.408 969.178 146.28 963.546 146.024C957.914 145.768 951.77 145.085 945.114 143.976L946.522 130.024C947.802 130.024 949.637 130.067 952.026 130.152C954.501 130.152 957.231 130.152 960.218 130.152C963.205 130.152 966.149 130.152 969.05 130.152C973.231 130.152 976.389 130.109 978.522 130.024C980.655 129.853 982.063 129.512 982.746 129C983.514 128.488 983.898 127.72 983.898 126.696C983.898 125.416 983.258 124.563 981.978 124.136C980.698 123.624 978.437 122.941 975.194 122.088L960.218 118.12C955.866 116.925 952.495 115.389 950.106 113.512C947.802 111.635 946.223 109.416 945.37 106.856C944.517 104.296 944.09 101.352 944.09 98.024C944.09 93.8427 944.986 90.4293 946.778 87.784C948.57 85.0533 951.514 83.0053 955.61 81.64C959.791 80.2747 965.423 79.592 972.506 79.592Z" fill="#64C832"/>
<path d="M115.309 59.5465C115.269 67.3805 113.237 71.327 110.716 71.6181C109.068 71.8154 107.164 70.4489 105.437 67.6123C99.7839 58.328 93.5977 49.4729 87.0267 40.7856C87.0267 40.7708 87.0365 40.751 87.0414 40.7313C89.5919 27.0219 93.6717 13.0412 100.652 0.880874C109.384 18.4825 115.412 39.9716 115.309 59.5465ZM82.5276 59.0927C88.699 64.6228 90.3911 69.0429 89.0098 71.4454C88.107 73.024 85.8525 73.7689 82.5522 73.3792C71.4871 72.0769 60.4515 71.5687 49.2827 71.4849C49.2728 71.4701 49.258 71.4503 49.2482 71.4355C38.701 58.8904 29.1651 44.7519 23.0381 29.4935C43.9302 34.4415 66.544 44.7765 82.5276 59.0927ZM61.4529 87.7053C69.7012 85.9638 74.2102 87.3994 75.2215 90.1225C75.8875 91.9034 75.0636 94.296 72.7253 96.8465C65.0048 105.272 57.9257 114.127 51.1327 123.348H51.0685C34.4387 124.576 17.1429 123.89 0.912659 119.84C17.4488 105.198 39.8603 92.2586 61.4529 87.7053ZM70.8753 122.997C74.4815 115.321 78.3343 112.435 80.9835 113.24C82.7249 113.762 84.0026 115.869 84.4712 119.253C85.9561 129.938 88.1021 140.412 90.7216 150.9C90.7117 150.909 90.6969 150.929 90.6871 150.949C81.6445 163.79 71.936 176.143 59.7608 186.202C58.3154 165.453 62.0794 141.719 70.8753 122.997ZM102.112 135.597C98.9009 128.567 99.1426 123.806 101.318 122.154C102.749 121.078 105.018 121.286 107.672 122.849C115.758 127.625 124.09 132.079 132.826 135.626C132.826 135.636 132.831 135.656 132.836 135.676C135.979 148.803 137.804 162.576 137 176.093C122.457 166.562 109.256 151.23 102.112 135.597ZM129.62 118.291C122.965 116.816 119.783 113.836 119.99 111.128C120.124 109.347 121.673 107.64 124.396 106.432C132.757 102.722 141.016 98.6372 148.79 93.7534C148.8 93.7632 148.82 93.7682 148.83 93.7731C159.13 99.0319 169.031 105.707 176.989 114.162C162.519 119.796 144.602 121.601 129.62 118.291ZM135.066 85.6481C129.798 90.2607 125.742 91.0401 123.966 89.1655C122.802 87.9371 122.57 85.5692 123.453 82.5057C126.246 72.7823 128.421 62.9702 130.222 52.9903C130.237 52.9903 130.256 52.9804 130.271 52.9755C140.882 48.0028 151.548 43.4445 163.333 42.2112C157.764 58.1208 147.671 74.6273 135.066 85.6481Z" fill="#146E37"/>
<path d="M100.647 0.885808C93.6667 13.0412 89.587 27.0219 87.0365 40.7313C87.0316 40.751 87.0266 40.7658 87.0217 40.7856C85.2704 38.5064 82.9469 35.7636 80.9341 33.2624C73.3123 23.7759 64.8914 14.8862 56.3668 6.16927C70.3573 0.555284 85.7243 -1.2848 100.647 0.885808ZM0 75.2637C13.0434 73.6703 26.146 72.215 39.1252 71.771C42.4798 71.6575 46.2833 71.4849 49.2876 71.4799C49.2728 71.4651 49.263 71.4454 49.2482 71.4306C38.7059 58.8855 29.17 44.7518 23.0381 29.4935C11.4105 42.3444 3.46311 58.2984 0 75.2637ZM25.6921 164.446C31.829 153.268 38.2866 142.188 45.3608 131.749C47.2404 128.976 49.3518 125.795 51.1228 123.343C51.1031 123.348 51.0833 123.348 51.0636 123.348C34.4387 124.576 17.1429 123.89 0.917576 119.845C5.07133 136.574 13.5811 152.148 25.6921 164.446ZM103.977 189.679C100.031 179.724 96.2419 169.71 93.2277 159.612C92.389 156.805 91.4073 153.539 90.7167 150.895C90.7068 150.914 90.692 150.924 90.6821 150.944C81.6396 163.785 71.931 176.138 59.7559 186.197C74.4568 190.498 88.7385 192.526 103.977 189.679ZM164.996 146.193C156.516 144.047 148.07 141.61 139.955 138.419C137.646 137.496 134.958 136.534 132.822 135.631C132.822 135.641 132.826 135.661 132.831 135.681C135.974 148.808 137.799 162.581 136.995 176.089C148.42 168.363 158.001 158.063 164.996 146.193ZM176.367 73.8725C169.559 79.4668 162.559 84.8933 155.159 89.6341C153.097 90.9612 150.744 92.5595 148.785 93.7484C148.795 93.7583 148.81 93.7632 148.825 93.7682C159.125 99.0269 169.021 105.697 176.984 114.147C178.878 100.181 178.725 87.7694 176.367 73.8725ZM134.277 13.2484C133.655 23.7117 132.9 34.1948 131.485 44.4312C131.105 47.2086 130.666 50.4448 130.232 52.9952C130.246 52.9903 130.261 52.9804 130.276 52.9755C140.892 48.0078 151.548 43.4495 163.333 42.2112C155.924 30.559 146.003 20.5545 134.277 13.2484Z" fill="#64C832"/>
</svg>
